<svg xmlns="http://www.w3.org/2000/svg" viewBox="0 0 64.68 64.68"><defs><style>.cls-1{fill:#fff;}.cls-2{fill:#e50c1c;}</style></defs><g id="Layer_2" data-name="Layer 2"><g id="Layer_1-2" data-name="Layer 1"><circle class="cls-1" cx="32.34" cy="32.34" r="32.34"/><path class="cls-2" d="M23.56,18.53a16.82,16.82,0,0,1,3.54.34A7.78,7.78,0,0,1,29.84,20a5.34,5.34,0,0,1,1.77,2.07,7.33,7.33,0,0,1,.62,3.18,5.94,5.94,0,0,1-.93,3.42,6.76,6.76,0,0,1-2.77,2.23,6.5,6.5,0,0,1,3.73,2.53,7.54,7.54,0,0,1,1.22,4.35,7.44,7.44,0,0,1-.79,3.55,6.9,6.9,0,0,1-2.14,2.46,9.71,9.71,0,0,1-3.09,1.41,13.85,13.85,0,0,1-3.54.45H10.78V18.53Zm-.77,11a4.33,4.33,0,0,0,2.63-.76,2.86,2.86,0,0,0,1-2.46,3.16,3.16,0,0,0-.34-1.56,2.45,2.45,0,0,0-.92-.94,3.78,3.78,0,0,0-1.31-.48,7.71,7.71,0,0,0-1.53-.13H16.75v6.33ZM23.12,41a7.45,7.45,0,0,0,1.67-.17,3.87,3.87,0,0,0,1.41-.57,2.83,2.83,0,0,0,1-1.08,3.8,3.8,0,0,0,.36-1.76,3.54,3.54,0,0,0-1.18-3,5,5,0,0,0-3.11-.89H16.75V41Z"/><path class="cls-2" d="M42,40.93a5.5,5.5,0,0,0,6.31.37,3.55,3.55,0,0,0,1.44-1.74h4.75A9,9,0,0,1,51,44.62a10.17,10.17,0,0,1-5.68,1.53,11.37,11.37,0,0,1-4.19-.74,9,9,0,0,1-3.17-2.11A9.68,9.68,0,0,1,36,40a11.9,11.9,0,0,1-.71-4.18A11.53,11.53,0,0,1,36,31.73,9.64,9.64,0,0,1,38,28.44a10,10,0,0,1,3.19-2.19,10.22,10.22,0,0,1,4.09-.8,9.16,9.16,0,0,1,4.36,1A8.68,8.68,0,0,1,52.72,29a10.77,10.77,0,0,1,1.73,3.72,13.77,13.77,0,0,1,.37,4.37H40.66A5.47,5.47,0,0,0,42,40.93Zm6.2-10.31a4,4,0,0,0-3-1.09A4.6,4.6,0,0,0,43,30a4.23,4.23,0,0,0-1.36,1.08,3.84,3.84,0,0,0-.73,1.38,6.34,6.34,0,0,0-.24,1.3h8.77A5.27,5.27,0,0,0,48.19,30.62Z"/><rect class="cls-2" x="39.55" y="20.35" width="10.99" height="2.68"/></g></g></svg>