<svg xmlns="http://www.w3.org/2000/svg" viewBox="0 0 64.68 64.68"><defs><style>.cls-1{fill:#fff;}.cls-2{fill:#e50c1c;fill-rule:evenodd;}</style></defs><g id="Layer_2" data-name="Layer 2"><g id="Layer_1-2" data-name="Layer 1"><circle class="cls-1" cx="32.34" cy="32.34" r="32.34"/><path class="cls-2" d="M32.34,8.38a24,24,0,1,0,24,24A24,24,0,0,0,32.34,8.38Zm15.82,11a20.34,20.34,0,0,1,4.63,12.73,48.23,48.23,0,0,0-14.24-.65c-.16-.34-.29-.7-.44-1.07-.42-1-.89-2-1.35-3C44.29,24.42,47.72,20,48.16,19.43ZM32.34,11.92A20.42,20.42,0,0,1,45.9,17.06c-.36.52-3.45,4.65-10.73,7.38a110.31,110.31,0,0,0-7.64-12A21.11,21.11,0,0,1,32.34,11.92Zm-8.7,1.92a130.1,130.1,0,0,1,7.58,11.82,76.64,76.64,0,0,1-18.91,2.5A20.54,20.54,0,0,1,23.64,13.84ZM11.87,32.37v-.63a74.48,74.48,0,0,0,21-2.91c.59,1.15,1.14,2.31,1.66,3.48l-.81.24C23.19,36,17.58,45.25,17.11,46A20.44,20.44,0,0,1,11.87,32.37ZM32.34,52.81A20.34,20.34,0,0,1,19.79,48.5c.36-.75,4.52-8.76,16.06-12.78a.69.69,0,0,1,.13,0,84.29,84.29,0,0,1,4.36,15.51A20.21,20.21,0,0,1,32.34,52.81Zm11.41-3.5a87.93,87.93,0,0,0-4-14.58,30,30,0,0,1,12.73.88A20.33,20.33,0,0,1,43.75,49.31Z"/></g></g></svg>