<svg xmlns="http://www.w3.org/2000/svg" viewBox="0 0 64.68 64.7"><defs><style>.cls-1{fill:#fff;}.cls-2{fill:#e50c1c;}</style></defs><g id="Layer_2" data-name="Layer 2"><g id="Layer_1-2" data-name="Layer 1"><path class="cls-1" d="M30.33,0h4c.42.05.83.11,1.25.15A31.3,31.3,0,0,1,53.6,8c8.53,7.67,12.2,17.3,10.78,28.67A30.94,30.94,0,0,1,52,58a31.47,31.47,0,0,1-24,6.42,31,31,0,0,1-16.12-7A31.88,31.88,0,0,1,.5,38c-.21-1.2-.33-2.41-.5-3.62v-4c.05-.41.11-.83.15-1.24A31.83,31.83,0,0,1,8.06,11,31.69,31.69,0,0,1,26.84.49C28,.29,29.17.16,30.33,0Z"/><path class="cls-2" d="M32.35,51c-3.08-.12-6.14-.12-9.17-.37A9.77,9.77,0,0,1,14,41.54c-.13-1.32-.23-2.65-.23-4q0-6.57.11-13.14A11.56,11.56,0,0,1,15,19.66a9.32,9.32,0,0,1,8.13-5.59c4-.29,8.08-.26,12.12-.27a51.1,51.1,0,0,1,7.11.38,9.62,9.62,0,0,1,8.34,8.92c.13,1.36.23,2.73.23,4.09q0,6.51-.11,13A11.38,11.38,0,0,1,49.72,45a9.44,9.44,0,0,1-8.12,5.6C38.52,50.93,35.42,50.91,32.35,51ZM17.06,32.35h.14c0,2.35,0,4.71,0,7.07a9.86,9.86,0,0,0,1,4.53,6.46,6.46,0,0,0,5.68,3.42,149.23,149.23,0,0,0,16.92,0c3.92-.22,6.49-2.69,6.59-6.61.15-5.61.15-11.24,0-16.85a6.37,6.37,0,0,0-6.6-6.58c-5.62-.15-11.24-.14-16.86,0C20,17.45,17.56,20,17.32,23.9,17.15,26.71,17.14,29.54,17.06,32.35Z"/><path class="cls-2" d="M41.88,32.34a9.53,9.53,0,1,1-9.5-9.52A9.51,9.51,0,0,1,41.88,32.34Zm-9.57,6.2a6.19,6.19,0,1,0-6.15-6.21A6.19,6.19,0,0,0,32.31,38.54Z"/><path class="cls-2" d="M44.49,22.46a2.22,2.22,0,1,1-2.16-2.24A2.2,2.2,0,0,1,44.49,22.46Z"/></g></g></svg>