<svg xmlns="http://www.w3.org/2000/svg" viewBox="0 0 64.68 64.68"><defs><style>.cls-1{fill:#fff;}.cls-2{fill:#e50c1c;}</style></defs><g id="Layer_2" data-name="Layer 2"><g id="Layer_1-2" data-name="Layer 1"><circle class="cls-1" cx="32.34" cy="32.34" r="32.34"/><path class="cls-2" d="M34.62,28.26c.47-.53.86-1.07,1.34-1.52a7.38,7.38,0,0,1,5.31-2.09,12.06,12.06,0,0,1,3.33.4,6.53,6.53,0,0,1,4.63,4.87,20.6,20.6,0,0,1,.62,5.58c0,4,0,7.93,0,11.89,0,.37-.11.47-.47.47q-3.08,0-6.13,0c-.36,0-.44-.11-.44-.45,0-3.77,0-7.54,0-11.32a10.28,10.28,0,0,0-.32-2.81A3.17,3.17,0,0,0,39,30.82c-2.42.13-3.68,1.33-4,3.79a15,15,0,0,0-.11,1.77c0,3.67,0,7.34,0,11,0,.37-.09.47-.46.47q-3.09,0-6.17,0c-.33,0-.43-.09-.43-.42q0-10.9,0-21.8c0-.35.12-.44.46-.44,1.95,0,3.91,0,5.86,0,.36,0,.45.12.44.46C34.6,26.52,34.62,27.39,34.62,28.26Z"/><path class="cls-2" d="M23.43,36.56c0,3.6,0,7.19,0,10.79,0,.39-.09.52-.51.51q-3.06,0-6.12,0c-.33,0-.43-.08-.43-.42q0-10.92,0-21.83c0-.3.08-.41.4-.41q3.11,0,6.21,0c.4,0,.45.15.45.49C23.42,29.32,23.43,32.94,23.43,36.56Z"/><path class="cls-2" d="M24,18a4.08,4.08,0,1,1-4.07-4A4.09,4.09,0,0,1,24,18Z"/></g></g></svg>