<svg xmlns="http://www.w3.org/2000/svg" viewBox="0 0 64.68 64.51"><defs><style>.cls-1{fill:#fff;}.cls-2{fill:#e50c1c;}</style></defs><g id="Layer_2" data-name="Layer 2"><g id="Layer_1-2" data-name="Layer 1"><path class="cls-1" d="M64.68,32.28A32.34,32.34,0,1,1,32.44,0,32.19,32.19,0,0,1,64.68,32.28ZM29.74,38.43c.61.41,1.19.75,1.71,1.16a7.35,7.35,0,0,0,6,1.25,10.52,10.52,0,0,0,7.48-5.26A17.73,17.73,0,0,0,47.25,23.5,10.86,10.86,0,0,0,41.4,15c-5.73-3-11.57-3.1-17.22.22A13.55,13.55,0,0,0,17.47,29.7a6.38,6.38,0,0,0,4.86,5.44.53.53,0,0,0,.75-.35A3.59,3.59,0,0,0,22.76,31a7.16,7.16,0,0,1-.92-6,11.58,11.58,0,0,1,13.55-8.35c3.6.88,5.9,3.07,6.51,6.84a16.15,16.15,0,0,1-.76,8.07,10,10,0,0,1-2.33,3.87,5.17,5.17,0,0,1-5.73,1.36,2.52,2.52,0,0,1-1.78-2.41,6.19,6.19,0,0,1,.09-1.55c.35-1.43.8-2.83,1.14-4.26a32.23,32.23,0,0,0,.82-4.32,2.43,2.43,0,0,0-1.84-2.61,3.29,3.29,0,0,0-4.05,1.2,7.69,7.69,0,0,0-1,7.75,1.87,1.87,0,0,1,.1,1c-.28,1.31-.6,2.62-.94,3.92-1,3.78-2,7.55-2,11.49,0,1.49.08,3,.13,4.53a7.92,7.92,0,0,0,2.56-2.57,20.7,20.7,0,0,0,2.68-6.8C29.23,40.93,29.46,39.72,29.74,38.43Z"/><path class="cls-2" d="M29.74,38.43c-.28,1.29-.51,2.5-.8,3.7a20.7,20.7,0,0,1-2.68,6.8A7.92,7.92,0,0,1,23.7,51.5c-.05-1.56-.15-3-.13-4.53,0-3.94,1.07-7.71,2-11.49.34-1.3.66-2.61.94-3.92a1.87,1.87,0,0,0-.1-1,7.69,7.69,0,0,1,1-7.75,3.29,3.29,0,0,1,4.05-1.2,2.43,2.43,0,0,1,1.84,2.61,32.23,32.23,0,0,1-.82,4.32c-.34,1.43-.79,2.83-1.14,4.26a6.19,6.19,0,0,0-.09,1.55,2.52,2.52,0,0,0,1.78,2.41,5.17,5.17,0,0,0,5.73-1.36,10,10,0,0,0,2.33-3.87,16.15,16.15,0,0,0,.76-8.07c-.61-3.77-2.91-6-6.51-6.84A11.58,11.58,0,0,0,21.84,25a7.16,7.16,0,0,0,.92,6,3.59,3.59,0,0,1,.32,3.77.53.53,0,0,1-.75.35,6.38,6.38,0,0,1-4.86-5.44,13.55,13.55,0,0,1,6.71-14.49C29.83,11.89,35.67,12,41.4,15a10.86,10.86,0,0,1,5.85,8.51,17.73,17.73,0,0,1-2.32,12.08,10.52,10.52,0,0,1-7.48,5.26,7.35,7.35,0,0,1-6-1.25C30.93,39.18,30.35,38.84,29.74,38.43Z"/></g></g></svg>