<svg xmlns="http://www.w3.org/2000/svg" viewBox="0 0 64.68 64.65"><defs><style>.cls-1{fill:#fff;}</style></defs><g id="Layer_2" data-name="Layer 2"><g id="Layer_1-2" data-name="Layer 1"><path class="cls-1" d="M32.33,64.65A32.33,32.33,0,1,1,64.68,32.37,32.31,32.31,0,0,1,32.33,64.65ZM11.72,19.73v.86q0,5.85,0,11.7a14,14,0,0,0,.09,1.58,9.47,9.47,0,0,0,18.79.46c.17-1.14.15-2.31.22-3.42,1.09,1.74,2.21,3.5,3.3,5.27a1.21,1.21,0,0,1,0,.76c-.63,2.93-1.28,5.86-1.92,8.8-.36,1.63-.71,3.27-1.08,5,1.52,0,3,0,4.4,0,.55,0,.73-.18.83-.7.66-3.22,1.36-6.44,2.06-9.7.19.09.35.14.49.22a13.38,13.38,0,0,0,5,1.62A10.2,10.2,0,0,0,55.24,31.53a9.73,9.73,0,0,0-8.35-9A9.46,9.46,0,0,0,36.68,28.4c-.25.58-.45,1.19-.68,1.79-.07,0-.13,0-.16-.06s-.23-.37-.34-.55a50.32,50.32,0,0,1-4.28-9.28c-.08-.22-.27-.56-.42-.57-1.55,0-3.1,0-4.71,0v.95c0,3.95,0,7.89,0,11.84A4.59,4.59,0,0,1,23.24,37a4.64,4.64,0,0,1-6.53-4.33c0-4,0-8.08,0-12.12v-.85Z"/><path class="cls-1" d="M45.16,27.1c2.79.13,5.19,2.49,5,5a5.28,5.28,0,0,1-5.6,5,8.86,8.86,0,0,1-4.53-1.88.92.92,0,0,1-.32-.69c.19-1,.42-2.07.69-3.08a5.48,5.48,0,0,1,2.45-3.6A14.18,14.18,0,0,1,45.16,27.1Z"/></g></g></svg>