<svg xmlns="http://www.w3.org/2000/svg" xmlns:xlink="http://www.w3.org/1999/xlink" viewBox="0 0 623.25 629.33"><defs><style>.cls-1{fill:#e50c1c;}.cls-2{fill:url(#linear-gradient);}</style><linearGradient id="linear-gradient" x1="165.66" y1="34.15" x2="451.12" y2="594.41" gradientUnits="userSpaceOnUse"><stop offset="0" stop-color="#0863ff"/><stop offset="0.4" stop-color="#0a64ff"/><stop offset="0.55" stop-color="#1169ff"/><stop offset="0.65" stop-color="#1c71ff"/><stop offset="0.74" stop-color="#2d7cff"/><stop offset="0.81" stop-color="#438aff"/><stop offset="0.87" stop-color="#5f9cff"/><stop offset="0.93" stop-color="#7fb1ff"/><stop offset="0.98" stop-color="#a3c9ff"/><stop offset="1" stop-color="#b5d5ff"/></linearGradient></defs><g id="Layer_2" data-name="Layer 2"><g id="Layer_1-2" data-name="Layer 1"><path class="cls-1" d="M513.82,121.67A278.92,278.92,0,0,0,317,35.72,283.22,283.22,0,0,0,268,39,277.2,277.2,0,0,0,160.62,79.67l1.65,2.58a276.06,276.06,0,0,1,106.22-40.1A279.22,279.22,0,0,1,421.63,61.4,278.2,278.2,0,0,1,534,150.06l2.42-1.81A285,285,0,0,0,513.82,121.67Z"/><path class="cls-1" d="M574.51,415.14a280.73,280.73,0,0,0,17.76-93.5l-3.14-.06A278.73,278.73,0,0,1,571.53,414a276.95,276.95,0,0,1-216.71,176.5l.49,3.13A277.2,277.2,0,0,0,462.68,553a283.8,283.8,0,0,0,43.65-34.5A279.7,279.7,0,0,0,574.51,415.14Z"/><path class="cls-1" d="M111.64,508.94a280.25,280.25,0,0,1-22.38-26.3,278.63,278.63,0,0,1-37.5-264l-3-1.11a281.58,281.58,0,0,0,38,266.9A285.27,285.27,0,0,0,109.48,511a279.84,279.84,0,0,0,90.94,63.16l1.24-2.88A276.18,276.18,0,0,1,111.64,508.94Z"/><path class="cls-2" d="M592.79,179.22a315,315,0,0,0-61.7-87.06l-2.23,2.23a313,313,0,0,1,61,86.2,310.88,310.88,0,0,1-26,312.64l2.62,1.83a311.21,311.21,0,0,0,50.66-118.32,318.2,318.2,0,0,0,6.08-62.08A313.51,313.51,0,0,0,592.79,179.22ZM308.59,0A312.61,312.61,0,0,0,86.08,92.16a318.83,318.83,0,0,0-35.41,42.1A311,311,0,0,0,0,252.58l3,.61a310,310,0,0,1,50.28-117.1A313.33,313.33,0,0,1,188.09,27.24,312,312,0,0,1,347.28,5.4l.38-3A320.3,320.3,0,0,0,308.59,0Zm120.5,602.09A312.15,312.15,0,0,1,27.26,448.74l-2.88,1.37A315.76,315.76,0,0,0,269.52,627a320.3,320.3,0,0,0,39.07,2.38A314.11,314.11,0,0,0,430.32,605Z"/></g></g></svg>