<svg id="Layer_1" data-name="Layer 1" xmlns="http://www.w3.org/2000/svg" viewBox="0 0 24 24"><path d="M15.46,2.57H8.58A1.56,1.56,0,0,0,7,4.13V19.48A1.56,1.56,0,0,0,8.58,21h6.88A1.56,1.56,0,0,0,17,19.48V4.13A1.56,1.56,0,0,0,15.46,2.57Zm-2,1a.19.19,0,1,1-.19.19A.19.19,0,0,1,13.46,3.52Zm-3,0h2a.2.2,0,0,1,.2.2.21.21,0,0,1-.2.21h-2a.21.21,0,0,1-.2-.21A.2.2,0,0,1,10.44,3.51Zm5.56,16h0a.54.54,0,0,1-.54.54H8.58a.53.53,0,0,1-.53-.54V4.13a.53.53,0,0,1,.53-.53h.79a1,1,0,0,0,.85,1h3.61a1,1,0,0,0,.85-1h.78a.54.54,0,0,1,.54.53Z"/></svg>