<svg id="Layer_1" data-name="Layer 1" xmlns="http://www.w3.org/2000/svg" viewBox="0 0 24 24"><path d="M3.5,12.06c.06.06.1.12.16.17,1.17,1.18,2.89,3,4.06,4.15.33.33.33.53,0,.85l-.33.32c-.28.28-.5.29-.78,0L1.51,12.45a.47.47,0,0,1,0-.77L6.62,6.57a.47.47,0,0,1,.78,0c.33.32.11.11.43.43s.29.51,0,.79C6.64,9,4.84,10.71,3.66,11.9A1.21,1.21,0,0,0,3.5,12.06Z"/><path d="M20.72,12.06l-.15.17c-1.18,1.18-2.89,3-4.07,4.15-.32.33-.32.53,0,.85s0,0,.32.32.5.29.78,0l5.11-5.11a.47.47,0,0,0,0-.77L17.6,6.57a.47.47,0,0,0-.78,0L16.39,7a.48.48,0,0,0,0,.79c1.19,1.19,3,2.92,4.18,4.11Z"/><path d="M8.59,19.12c0-.14.09-.33.15-.52q2-6.94,4.09-13.87c0-.08.05-.16.08-.23a.39.39,0,0,1,.48-.26c.34.08.67.17,1,.28s.34.31.25.62c-.14.49-.29,1-.44,1.48L10.41,19.41a1.22,1.22,0,0,1-.09.27.4.4,0,0,1-.45.22c-.34-.09-.68-.18-1-.3A.43.43,0,0,1,8.59,19.12Z"/></svg>